<svg width="347" height="72" viewBox="0 0 347 72" fill="none" xmlns="http://www.w3.org/2000/svg">
<rect x="205" y="35" width="128" height="25" fill="#A45848"/>
<path d="M77.4133 26.68C79.3866 26.68 80.9599 27.3867 82.1333 28.8C83.3333 30.2133 83.9333 32.08 83.9333 34.4C83.9333 35.6 83.7866 36.7733 83.4933 37.92C82.6399 41.36 81.1733 43.96 79.0933 45.72C77.0399 47.48 74.6666 48.36 71.9733 48.36C70.4533 48.36 69.1333 48.1067 68.0133 47.6C66.9199 47.0667 66.0399 46.32 65.3733 45.36L63.9333 46.6C63.3733 47.08 62.8266 47.44 62.2933 47.68C61.7599 47.8933 61.1466 48 60.4533 48H58.6933C58.0266 48 57.5066 47.8667 57.1333 47.6C56.7866 47.3067 56.6133 46.8933 56.6133 46.36C56.6133 46.12 56.6533 45.84 56.7333 45.52L63.4133 23.8C63.4933 23.56 63.5333 23.36 63.5333 23.2C63.5333 22.7467 63.2533 22.32 62.6933 21.92C62.4266 21.68 62.2399 21.4933 62.1333 21.36C62.0266 21.2 62.0133 21 62.0933 20.76C62.2799 20.1467 63.1199 19.6133 64.6133 19.16C66.1333 18.68 67.7199 18.44 69.3733 18.44C70.9199 18.44 72.0533 18.7467 72.7733 19.36C73.5199 19.9467 73.8933 20.7467 73.8933 21.76C73.8933 22.32 73.7999 22.88 73.6133 23.44L71.9333 28.88C73.4799 27.4133 75.3066 26.68 77.4133 26.68ZM72.8933 37.68C73.4266 35.8667 73.6933 34.4 73.6933 33.28C73.6933 32.0533 73.3333 31.44 72.6133 31.44C71.9733 31.44 71.3733 31.7733 70.8133 32.44L68.2133 40.92L67.9733 41.68C67.8399 42.08 67.7733 42.4933 67.7733 42.92C67.7733 43.8533 68.2133 44.32 69.0933 44.32C69.7333 44.32 70.3466 43.8533 70.9333 42.92C71.5199 41.9867 72.1733 40.24 72.8933 37.68ZM97.0436 26.64C100.43 26.64 102.884 27.1867 104.404 28.28C105.924 29.3467 106.684 30.72 106.684 32.4C106.684 32.9067 106.63 33.3733 106.524 33.8C106.124 35.56 105.004 36.8267 103.164 37.6C101.35 38.3467 99.2036 38.72 96.7236 38.72C95.4703 38.72 94.2969 38.64 93.2036 38.48C93.1769 39.8667 93.5503 40.84 94.3236 41.4C95.0969 41.96 96.1769 42.24 97.5636 42.24C98.2036 42.24 98.8169 42.1733 99.4036 42.04C99.9903 41.88 100.737 41.6533 101.644 41.36C102.39 41.0933 102.897 40.96 103.164 40.96C103.457 40.96 103.604 41.1333 103.604 41.48C103.63 42.4133 103.284 43.4 102.564 44.44C101.844 45.4533 100.777 46.32 99.3636 47.04C97.9503 47.76 96.2436 48.12 94.2436 48.12C91.2836 48.12 88.8569 47.3733 86.9636 45.88C85.0703 44.3867 84.1236 42.2133 84.1236 39.36C84.1236 38.56 84.2303 37.6267 84.4436 36.56C85.1103 33.28 86.5636 30.8133 88.8036 29.16C91.0703 27.48 93.8169 26.64 97.0436 26.64ZM93.4836 36.08C93.5903 36.1067 93.7369 36.12 93.9236 36.12C95.0436 36.12 95.8969 35.6 96.4836 34.56C97.0703 33.52 97.3503 32.36 97.3236 31.08C97.2969 30.3333 97.0836 29.96 96.6836 29.96C96.3903 29.96 96.0436 30.2 95.6436 30.68C95.2436 31.1333 94.8436 31.8267 94.4436 32.76C94.0703 33.6933 93.7503 34.8 93.4836 36.08ZM124.906 26.84C126.4 26.84 127.586 27.2933 128.466 28.2C129.373 29.1067 129.826 30.2267 129.826 31.56C129.826 32.0667 129.773 32.5333 129.666 32.96C129.4 34.0533 128.893 34.8933 128.146 35.48C127.4 36.0667 126.506 36.36 125.466 36.36C124.453 36.36 123.68 36.12 123.146 35.64C122.64 35.16 122.186 34.52 121.786 33.72C121.573 33.2667 121.373 32.9333 121.186 32.72C121 32.5067 120.786 32.4 120.546 32.4C120.28 32.4 120.04 32.5067 119.826 32.72C119.64 32.9333 119.466 33.3067 119.306 33.84L116.226 43.84C116.173 43.9733 116.146 44.1733 116.146 44.44C116.146 44.7867 116.24 45.08 116.426 45.32C116.64 45.5333 116.92 45.7467 117.266 45.96C117.586 46.1733 117.8 46.3467 117.906 46.48C118.013 46.6133 118.053 46.7867 118.026 47C117.973 47.3467 117.773 47.6 117.426 47.76C117.106 47.92 116.546 48 115.746 48H105.506C104.813 48 104.32 47.8933 104.026 47.68C103.706 47.44 103.586 47.1333 103.666 46.76C103.773 46.44 104.053 46.16 104.506 45.92C104.906 45.7067 105.24 45.4533 105.506 45.16C105.773 44.8667 106 44.4 106.186 43.76L109.746 32.2C109.8 32.0667 109.826 31.88 109.826 31.64C109.826 31.3467 109.76 31.12 109.626 30.96C109.52 30.8 109.333 30.6 109.066 30.36C108.8 30.1467 108.613 29.96 108.506 29.8C108.4 29.64 108.386 29.4267 108.466 29.16C108.626 28.5467 109.466 28.0133 110.986 27.56C112.506 27.08 114.093 26.84 115.746 26.84C116.84 26.84 117.746 27.0933 118.466 27.6C119.186 28.08 119.653 28.7733 119.866 29.68C121.146 27.7867 122.826 26.84 124.906 26.84ZM145.71 27.36C146.217 27.36 146.604 27.4667 146.87 27.68C147.164 27.8933 147.31 28.1867 147.31 28.56C147.31 28.6667 147.284 28.8533 147.23 29.12C146.884 30.2933 146.084 30.88 144.83 30.88H142.51L139.51 40.76C139.377 41.16 139.31 41.5733 139.31 42C139.31 42.48 139.444 42.8133 139.71 43C139.977 43.1867 140.35 43.28 140.83 43.28C141.257 43.28 141.79 43.2267 142.43 43.12C142.75 43.04 143.03 43 143.27 43C143.457 43 143.59 43.0667 143.67 43.2C143.777 43.3067 143.83 43.4533 143.83 43.64C143.857 44.1733 143.457 44.8267 142.63 45.6C141.83 46.3467 140.737 47 139.35 47.56C137.964 48.0933 136.43 48.36 134.75 48.36C132.937 48.36 131.484 47.9467 130.39 47.12C129.297 46.2933 128.75 45.16 128.75 43.72C128.75 43.0533 128.857 42.4133 129.07 41.8L131.63 33.88C131.764 33.4267 131.83 33.0667 131.83 32.8C131.83 32.2667 131.697 31.8133 131.43 31.44C131.19 31.0667 130.844 30.68 130.39 30.28C129.99 29.9067 129.71 29.6 129.55 29.36C129.39 29.0933 129.35 28.7867 129.43 28.44C129.537 28.0933 129.764 27.8267 130.11 27.64C130.457 27.4533 131.004 27.36 131.75 27.36H133.99L136.51 24.84C137.39 23.96 138.19 23.3467 138.91 23C139.657 22.6533 140.617 22.48 141.79 22.48C143.47 22.48 144.31 23.12 144.31 24.4C144.31 24.8 144.257 25.1733 144.15 25.52L143.59 27.36H145.71ZM168.938 42.48C168.885 42.5867 168.858 42.7467 168.858 42.96C168.858 43.1467 168.898 43.2933 168.978 43.4C169.085 43.5067 169.218 43.56 169.378 43.56C169.698 43.56 169.965 43.4267 170.178 43.16C170.418 42.8667 170.578 42.72 170.658 42.72C170.791 42.72 170.898 42.8133 170.978 43C171.058 43.16 171.098 43.36 171.098 43.6C171.125 44.3733 170.871 45.1333 170.338 45.88C169.805 46.6 169.018 47.2 167.978 47.68C166.965 48.1333 165.738 48.36 164.298 48.36C162.538 48.36 161.138 47.96 160.098 47.16C159.058 46.3333 158.525 45.24 158.498 43.88C158.498 42.8933 158.738 41.7867 159.218 40.56L161.418 34.8C161.551 34.4533 161.618 34.1733 161.618 33.96C161.618 33.6133 161.498 33.3467 161.258 33.16C161.045 32.9467 160.778 32.84 160.458 32.84C159.951 32.84 159.431 33.08 158.898 33.56C158.391 34.0133 157.978 34.76 157.658 35.8V35.72L155.138 43.84C155.058 44.16 155.018 44.44 155.018 44.68C155.018 45.0267 155.085 45.3067 155.218 45.52C155.351 45.7067 155.538 45.8933 155.778 46.08C155.965 46.2667 156.098 46.4267 156.178 46.56C156.258 46.6667 156.271 46.8133 156.218 47C156.085 47.3467 155.818 47.6 155.418 47.76C155.018 47.92 154.405 48 153.578 48H144.458C143.765 48 143.258 47.8933 142.938 47.68C142.618 47.44 142.511 47.1333 142.618 46.76C142.725 46.44 143.005 46.16 143.458 45.92C143.858 45.7067 144.191 45.4533 144.458 45.16C144.725 44.8667 144.951 44.4 145.138 43.76L151.218 23.8C151.298 23.56 151.338 23.36 151.338 23.2C151.338 22.9067 151.258 22.6667 151.098 22.48C150.965 22.2933 150.778 22.1067 150.538 21.92C150.271 21.7067 150.071 21.52 149.938 21.36C149.831 21.2 149.818 20.9867 149.898 20.72C150.058 20.1067 150.898 19.5733 152.418 19.12C153.938 18.6667 155.525 18.44 157.178 18.44C158.725 18.44 159.858 18.7333 160.578 19.32C161.325 19.9067 161.698 20.7067 161.698 21.72C161.698 22.3067 161.605 22.88 161.418 23.44L159.258 30.48C160.298 29.12 161.391 28.1733 162.538 27.64C163.711 27.1067 164.978 26.84 166.338 26.84C167.965 26.84 169.271 27.3333 170.258 28.32C171.271 29.3067 171.778 30.5867 171.778 32.16C171.778 32.9867 171.645 33.8 171.378 34.6L168.938 42.48ZM186.496 26.84C189.563 26.84 192.016 27.4133 193.856 28.56C195.696 29.68 196.616 31.4 196.616 33.72C196.616 34.6 196.456 35.6 196.136 36.72L194.496 42.24C194.47 42.3467 194.456 42.48 194.456 42.64C194.456 43.0667 194.63 43.28 194.976 43.28C195.296 43.28 195.563 43.1467 195.776 42.88C196.016 42.5867 196.176 42.44 196.256 42.44C196.39 42.44 196.496 42.5333 196.576 42.72C196.683 42.9067 196.736 43.12 196.736 43.36C196.763 44.08 196.483 44.8133 195.896 45.56C195.336 46.3067 194.576 46.92 193.616 47.4C192.656 47.88 191.603 48.12 190.456 48.12C189.07 48.12 187.883 47.8667 186.896 47.36C185.91 46.8533 185.23 46.1067 184.856 45.12C184.056 46.08 183.11 46.8267 182.016 47.36C180.923 47.8667 179.75 48.12 178.496 48.12C177.083 48.12 175.896 47.8533 174.936 47.32C173.976 46.76 173.256 46.0533 172.776 45.2C172.323 44.32 172.096 43.4 172.096 42.44C172.096 42.0133 172.136 41.6 172.216 41.2C172.643 39.36 173.563 37.9733 174.976 37.04C176.416 36.1067 178.123 35.64 180.096 35.64C182.31 35.64 184.483 35.9867 186.616 36.68L187.616 34.04C187.963 32.92 188.136 32.0533 188.136 31.44C188.11 30.8 187.896 30.32 187.496 30C187.096 29.68 186.483 29.52 185.656 29.52C185.816 29.9467 185.896 30.3867 185.896 30.84C185.896 31.8267 185.523 32.68 184.776 33.4C184.03 34.12 182.963 34.48 181.576 34.48C180.27 34.48 179.243 34.2 178.496 33.64C177.776 33.0533 177.416 32.3333 177.416 31.48C177.416 30.1467 178.163 29.04 179.656 28.16C181.15 27.28 183.43 26.84 186.496 26.84ZM184.256 38.96C183.51 38.96 182.896 39.2533 182.416 39.84C181.963 40.4 181.736 41.0133 181.736 41.68C181.736 42.1067 181.83 42.4533 182.016 42.72C182.23 42.9867 182.523 43.12 182.896 43.12C183.243 43.12 183.616 42.9867 184.016 42.72C184.443 42.4267 184.75 42 184.936 41.44L185.776 39.08C185.323 39 184.816 38.96 184.256 38.96ZM227.556 42.24C227.503 42.4533 227.476 42.6 227.476 42.68C227.476 42.8667 227.529 43.0133 227.636 43.12C227.743 43.2267 227.876 43.28 228.036 43.28C228.356 43.28 228.623 43.1467 228.836 42.88C229.076 42.5867 229.236 42.44 229.316 42.44C229.449 42.44 229.556 42.5333 229.636 42.72C229.716 42.9067 229.756 43.12 229.756 43.36C229.783 44.08 229.503 44.8133 228.916 45.56C228.356 46.3067 227.596 46.92 226.636 47.4C225.676 47.88 224.636 48.12 223.516 48.12C222.183 48.12 221.023 47.8667 220.036 47.36C219.049 46.8533 218.369 46.1867 217.996 45.36C217.276 46.2933 216.449 46.9867 215.516 47.44C214.583 47.8933 213.596 48.12 212.556 48.12C211.329 48.12 210.183 47.8133 209.116 47.2C208.076 46.5867 207.236 45.72 206.596 44.6C205.983 43.4533 205.676 42.16 205.676 40.72C205.676 38.2933 206.129 36.0133 207.036 33.88C207.969 31.72 209.263 29.9867 210.916 28.68C212.569 27.3467 214.449 26.68 216.556 26.68C217.703 26.68 218.676 26.8133 219.476 27.08C220.303 27.3467 221.049 27.7467 221.716 28.28L223.076 23.8C223.156 23.56 223.196 23.36 223.196 23.2C223.196 22.9067 223.116 22.6667 222.956 22.48C222.823 22.2933 222.636 22.1067 222.396 21.92C222.129 21.7067 221.929 21.52 221.796 21.36C221.689 21.2 221.676 20.9867 221.756 20.72C221.916 20.1067 222.756 19.5733 224.276 19.12C225.796 18.6667 227.383 18.44 229.036 18.44C230.583 18.44 231.716 18.7333 232.436 19.32C233.183 19.9067 233.556 20.7067 233.556 21.72C233.556 22.3067 233.463 22.88 233.276 23.44L227.556 42.24ZM220.876 31C220.449 30.6267 219.983 30.44 219.476 30.44C218.703 30.44 217.943 31.0133 217.196 32.16C216.449 33.3067 215.849 34.6933 215.396 36.32C214.943 37.9467 214.729 39.4133 214.756 40.72C214.756 42.1867 215.236 42.92 216.196 42.92C216.543 42.92 216.836 42.7867 217.076 42.52C217.316 42.2267 217.543 41.76 217.756 41.12L220.876 31ZM250.447 26.84C251.94 26.84 253.127 27.2933 254.007 28.2C254.914 29.1067 255.367 30.2267 255.367 31.56C255.367 32.0667 255.314 32.5333 255.207 32.96C254.94 34.0533 254.434 34.8933 253.687 35.48C252.94 36.0667 252.047 36.36 251.007 36.36C249.994 36.36 249.22 36.12 248.687 35.64C248.18 35.16 247.727 34.52 247.327 33.72C247.114 33.2667 246.914 32.9333 246.727 32.72C246.54 32.5067 246.327 32.4 246.087 32.4C245.82 32.4 245.58 32.5067 245.367 32.72C245.18 32.9333 245.007 33.3067 244.847 33.84L241.767 43.84C241.714 43.9733 241.687 44.1733 241.687 44.44C241.687 44.7867 241.78 45.08 241.967 45.32C242.18 45.5333 242.46 45.7467 242.807 45.96C243.127 46.1733 243.34 46.3467 243.447 46.48C243.554 46.6133 243.594 46.7867 243.567 47C243.514 47.3467 243.314 47.6 242.967 47.76C242.647 47.92 242.087 48 241.287 48H231.047C230.354 48 229.86 47.8933 229.567 47.68C229.247 47.44 229.127 47.1333 229.207 46.76C229.314 46.44 229.594 46.16 230.047 45.92C230.447 45.7067 230.78 45.4533 231.047 45.16C231.314 44.8667 231.54 44.4 231.727 43.76L235.287 32.2C235.34 32.0667 235.367 31.88 235.367 31.64C235.367 31.3467 235.3 31.12 235.167 30.96C235.06 30.8 234.874 30.6 234.607 30.36C234.34 30.1467 234.154 29.96 234.047 29.8C233.94 29.64 233.927 29.4267 234.007 29.16C234.167 28.5467 235.007 28.0133 236.527 27.56C238.047 27.08 239.634 26.84 241.287 26.84C242.38 26.84 243.287 27.0933 244.007 27.6C244.727 28.08 245.194 28.7733 245.407 29.68C246.687 27.7867 248.367 26.84 250.447 26.84ZM263.891 26.84C265.438 26.84 266.571 27.1333 267.291 27.72C268.011 28.3067 268.371 29.1067 268.371 30.12C268.371 30.7333 268.278 31.32 268.091 31.88L264.411 43.84C264.331 44.16 264.291 44.44 264.291 44.68C264.291 45.0267 264.358 45.3067 264.491 45.52C264.624 45.7067 264.811 45.8933 265.051 46.08C265.238 46.2667 265.371 46.4267 265.451 46.56C265.531 46.6667 265.544 46.8133 265.491 47C265.358 47.3467 265.091 47.6 264.691 47.76C264.291 47.92 263.678 48 262.851 48H253.731C253.038 48 252.531 47.8933 252.211 47.68C251.891 47.44 251.784 47.1333 251.891 46.76C251.998 46.44 252.278 46.16 252.731 45.92C253.131 45.7067 253.464 45.4533 253.731 45.16C253.998 44.8667 254.224 44.4 254.411 43.76L257.891 32.2C257.971 31.96 258.011 31.76 258.011 31.6C258.011 31.3067 257.944 31.08 257.811 30.92C257.678 30.7333 257.478 30.5467 257.211 30.36C256.944 30.1467 256.758 29.96 256.651 29.8C256.544 29.64 256.531 29.4267 256.611 29.16C256.771 28.5467 257.611 28.0133 259.131 27.56C260.651 27.08 262.238 26.84 263.891 26.84ZM266.571 18C267.611 18 268.478 18.3467 269.171 19.04C269.864 19.7067 270.211 20.5333 270.211 21.52C270.211 22.2133 270.024 22.8933 269.651 23.56C269.304 24.2267 268.798 24.7733 268.131 25.2C267.491 25.6 266.771 25.8 265.971 25.8C264.958 25.8 264.104 25.4667 263.411 24.8C262.744 24.1067 262.398 23.2533 262.371 22.24C262.371 21.5733 262.544 20.92 262.891 20.28C263.238 19.6133 263.731 19.0667 264.371 18.64C265.011 18.2133 265.744 18 266.571 18ZM286.94 26.84C288.353 26.84 289.526 27.3467 290.46 28.36C291.393 29.3733 291.86 30.76 291.86 32.52C291.86 34.8933 291.033 37.32 289.38 39.8C287.726 42.28 285.633 44.3333 283.1 45.96C280.566 47.56 278.1 48.36 275.7 48.36C273.406 48.36 271.54 47.8933 270.1 46.96C268.686 46.0267 267.98 44.6933 267.98 42.96C267.98 42.32 268.1 41.6 268.34 40.8L270.86 32.2C270.913 31.9867 270.94 31.8267 270.94 31.72C270.94 31.4533 270.873 31.2267 270.74 31.04C270.606 30.8533 270.42 30.6533 270.18 30.44C269.78 30.0933 269.58 29.7867 269.58 29.52C269.553 29.1467 269.78 28.7467 270.26 28.32C270.74 27.8933 271.406 27.5467 272.26 27.28C273.14 26.9867 274.126 26.84 275.22 26.84C277.006 26.84 278.393 27.28 279.38 28.16C280.393 29.0133 280.9 30.1333 280.9 31.52C280.9 32.1333 280.793 32.8 280.58 33.52L277.98 42.08C277.9 42.32 277.86 42.52 277.86 42.68C277.86 43.0267 277.98 43.2933 278.22 43.48C278.46 43.6667 278.793 43.76 279.22 43.76C279.806 43.76 280.486 43.5067 281.26 43C282.06 42.4667 282.846 41.72 283.62 40.76C284.393 39.7733 285.02 38.6133 285.5 37.28C284.433 36.3467 283.673 35.4267 283.22 34.52C282.793 33.6133 282.58 32.68 282.58 31.72C282.58 30.36 282.953 29.2133 283.7 28.28C284.446 27.32 285.526 26.84 286.94 26.84ZM304.325 26.64C307.711 26.64 310.165 27.1867 311.685 28.28C313.205 29.3467 313.965 30.72 313.965 32.4C313.965 32.9067 313.911 33.3733 313.805 33.8C313.405 35.56 312.285 36.8267 310.445 37.6C308.631 38.3467 306.485 38.72 304.005 38.72C302.751 38.72 301.578 38.64 300.485 38.48C300.458 39.8667 300.831 40.84 301.605 41.4C302.378 41.96 303.458 42.24 304.845 42.24C305.485 42.24 306.098 42.1733 306.685 42.04C307.271 41.88 308.018 41.6533 308.925 41.36C309.671 41.0933 310.178 40.96 310.445 40.96C310.738 40.96 310.885 41.1333 310.885 41.48C310.911 42.4133 310.565 43.4 309.845 44.44C309.125 45.4533 308.058 46.32 306.645 47.04C305.231 47.76 303.525 48.12 301.525 48.12C298.565 48.12 296.138 47.3733 294.245 45.88C292.351 44.3867 291.405 42.2133 291.405 39.36C291.405 38.56 291.511 37.6267 291.725 36.56C292.391 33.28 293.845 30.8133 296.085 29.16C298.351 27.48 301.098 26.64 304.325 26.64ZM300.765 36.08C300.871 36.1067 301.018 36.12 301.205 36.12C302.325 36.12 303.178 35.6 303.765 34.56C304.351 33.52 304.631 32.36 304.605 31.08C304.578 30.3333 304.365 29.96 303.965 29.96C303.671 29.96 303.325 30.2 302.925 30.68C302.525 31.1333 302.125 31.8267 301.725 32.76C301.351 33.6933 301.031 34.8 300.765 36.08ZM332.188 26.84C333.681 26.84 334.868 27.2933 335.748 28.2C336.654 29.1067 337.108 30.2267 337.108 31.56C337.108 32.0667 337.054 32.5333 336.948 32.96C336.681 34.0533 336.174 34.8933 335.428 35.48C334.681 36.0667 333.788 36.36 332.748 36.36C331.734 36.36 330.961 36.12 330.428 35.64C329.921 35.16 329.468 34.52 329.068 33.72C328.854 33.2667 328.654 32.9333 328.468 32.72C328.281 32.5067 328.068 32.4 327.828 32.4C327.561 32.4 327.321 32.5067 327.108 32.72C326.921 32.9333 326.748 33.3067 326.588 33.84L323.508 43.84C323.454 43.9733 323.428 44.1733 323.428 44.44C323.428 44.7867 323.521 45.08 323.708 45.32C323.921 45.5333 324.201 45.7467 324.548 45.96C324.868 46.1733 325.081 46.3467 325.188 46.48C325.294 46.6133 325.334 46.7867 325.308 47C325.254 47.3467 325.054 47.6 324.708 47.76C324.388 47.92 323.828 48 323.028 48H312.788C312.094 48 311.601 47.8933 311.308 47.68C310.988 47.44 310.868 47.1333 310.948 46.76C311.054 46.44 311.334 46.16 311.788 45.92C312.188 45.7067 312.521 45.4533 312.788 45.16C313.054 44.8667 313.281 44.4 313.468 43.76L317.028 32.2C317.081 32.0667 317.108 31.88 317.108 31.64C317.108 31.3467 317.041 31.12 316.908 30.96C316.801 30.8 316.614 30.6 316.348 30.36C316.081 30.1467 315.894 29.96 315.788 29.8C315.681 29.64 315.668 29.4267 315.748 29.16C315.908 28.5467 316.748 28.0133 318.268 27.56C319.788 27.08 321.374 26.84 323.028 26.84C324.121 26.84 325.028 27.0933 325.748 27.6C326.468 28.08 326.934 28.7733 327.148 29.68C328.428 27.7867 330.108 26.84 332.188 26.84ZM339.872 39.92C340.938 39.92 341.832 40.28 342.552 41C343.298 41.72 343.672 42.6 343.672 43.64C343.672 44.36 343.472 45.0667 343.072 45.76C342.698 46.4533 342.165 47.0267 341.472 47.48C340.805 47.9067 340.045 48.12 339.192 48.12C338.152 48.12 337.272 47.76 336.552 47.04C335.832 46.32 335.458 45.44 335.432 44.4C335.432 43.68 335.618 42.9733 335.992 42.28C336.365 41.5867 336.885 41.0267 337.552 40.6C338.245 40.1467 339.018 39.92 339.872 39.92Z" fill="black"/>
<path d="M46.949 40.5928C40.8686 46.2042 17.0364 59.0711 11.425 52.9907C5.8136 46.9104 20.5479 24.1853 26.6282 18.5738C32.7086 12.9624 42.1866 13.3426 47.7981 19.4229C53.4095 25.5033 53.0293 34.9814 46.949 40.5928Z" fill="#333333"/>
<path fill-rule="evenodd" clip-rule="evenodd" d="M15.0209 54.6038C23.3166 54.6038 30.0417 28.3063 30.0417 20.0142C30.0417 11.7221 23.3166 5 15.0209 5C6.72507 5 0 11.7221 0 20.0142C0 28.3063 6.72507 54.6038 15.0209 54.6038ZM13.6715 30.4526C18.6876 30.4526 22.7539 26.2298 22.7539 21.0209C22.7539 15.8119 18.6876 11.5892 13.6715 11.5892C8.65547 11.5892 4.58916 15.8119 4.58916 21.0209C4.58916 26.2298 8.65547 30.4526 13.6715 30.4526Z" fill="#A45848"/>
</svg>
